<svg width="100" height="100" viewBox="0 0 100 100" fill="none" xmlns="http://www.w3.org/2000/svg">
<rect width="100" height="100" rx="20" fill="#373839"/>
<path d="M45.1932 72.4545C42.7083 72.4545 40.4205 71.803 38.3295 70.5C36.2538 69.197 34.5871 67.2197 33.3295 64.5682C32.0871 61.9167 31.4659 58.5758 31.4659 54.5455C31.4659 50.3333 32.1174 46.9091 33.4205 44.2727C34.7386 41.6364 36.4356 39.7045 38.5114 38.4773C40.6023 37.25 42.7992 36.6364 45.1023 36.6364C46.8295 36.6364 48.3447 36.9394 49.6477 37.5455C50.9508 38.1364 52.0417 38.9318 52.9205 39.9318C53.7992 40.9167 54.4659 42 54.9205 43.1818H55.1023V25.4545H67.6477V72H55.1932V66.2727H54.9205C54.4356 67.4545 53.7386 68.5152 52.8295 69.4545C51.9356 70.3788 50.8447 71.1136 49.5568 71.6591C48.2841 72.1894 46.8295 72.4545 45.1932 72.4545ZM49.8295 62.8182C50.9811 62.8182 51.9659 62.4848 52.7841 61.8182C53.6174 61.1364 54.2538 60.1818 54.6932 58.9545C55.1477 57.7121 55.375 56.2424 55.375 54.5455C55.375 52.8182 55.1477 51.3409 54.6932 50.1136C54.2538 48.8712 53.6174 47.9242 52.7841 47.2727C51.9659 46.6061 50.9811 46.2727 49.8295 46.2727C48.678 46.2727 47.6932 46.6061 46.875 47.2727C46.072 47.9242 45.4508 48.8712 45.0114 50.1136C44.5871 51.3409 44.375 52.8182 44.375 54.5455C44.375 56.2727 44.5871 57.7576 45.0114 59C45.4508 60.2273 46.072 61.1742 46.875 61.8409C47.6932 62.4924 48.678 62.8182 49.8295 62.8182Z" fill="white" fill-opacity="0.6"/>
</svg>
