<svg viewBox="0 0 20 20" fill="none" xmlns="http://www.w3.org/2000/svg">
<path d="M16.6667 18.3334H3.33333C3.11232 18.3334 2.90036 18.2456 2.74408 18.0893C2.5878 17.9331 2.5 17.7211 2.5 17.5001V2.50008C2.5 2.27907 2.5878 2.06711 2.74408 1.91083C2.90036 1.75455 3.11232 1.66675 3.33333 1.66675H16.6667C16.8877 1.66675 17.0996 1.75455 17.2559 1.91083C17.4122 2.06711 17.5 2.27907 17.5 2.50008V17.5001C17.5 17.7211 17.4122 17.9331 17.2559 18.0893C17.0996 18.2456 16.8877 18.3334 16.6667 18.3334ZM6.66667 5.83341V7.50008H13.3333V5.83341H6.66667ZM6.66667 9.16675V10.8334H13.3333V9.16675H6.66667ZM6.66667 12.5001V14.1667H13.3333V12.5001H6.66667Z" fill="currentColor" />
</svg>
