<svg viewBox="0 0 16 16" fill="none" xmlns="http://www.w3.org/2000/svg">
<path d="M14.6673 8.666V13.3333C14.6673 13.5101 14.5971 13.6797 14.4721 13.8047C14.347 13.9298 14.1775 14 14.0007 14H8.66732V8.666H14.6673ZM7.33398 8.666V14H2.00065C1.82384 14 1.65427 13.9298 1.52925 13.8047C1.40422 13.6797 1.33398 13.5101 1.33398 13.3333V8.666H7.33398V8.666ZM7.33398 2V7.33267H1.33398V2.66667C1.33398 2.48986 1.40422 2.32029 1.52925 2.19526C1.65427 2.07024 1.82384 2 2.00065 2H7.33398ZM14.0007 2C14.1775 2 14.347 2.07024 14.4721 2.19526C14.5971 2.32029 14.6673 2.48986 14.6673 2.66667V7.33267H8.66732V2H14.0007Z" fill="currentColor"/></svg>
