<svg  viewBox="0 0 28 28" fill="none" xmlns="http://www.w3.org/2000/svg">
<path d="M5.83317 25.6666C5.52375 25.6666 5.22701 25.5437 5.00821 25.3249C4.78942 25.1061 4.6665 24.8093 4.6665 24.4999V3.49992C4.6665 3.1905 4.78942 2.89375 5.00821 2.67496C5.22701 2.45617 5.52375 2.33325 5.83317 2.33325H22.1665C22.4759 2.33325 22.7727 2.45617 22.9915 2.67496C23.2103 2.89375 23.3332 3.1905 23.3332 3.49992V6.99992H20.9998V4.66659H6.99984V23.3333H20.9998V20.9999H23.3332V24.4999C23.3332 24.8093 23.2103 25.1061 22.9915 25.3249C22.7727 25.5437 22.4759 25.6666 22.1665 25.6666H5.83317ZM20.9998 18.6666V15.1666H12.8332V12.8333H20.9998V9.33325L26.8332 13.9999L20.9998 18.6666Z" fill="currentColor"/>
</svg>
