<svg viewBox="0 0 20 20" fill="none" xmlns="http://www.w3.org/2000/svg">
<g clip-path="url(#clip0_19_10826)">
<path d="M7.23824 3.33373L9.41074 1.16123C9.56701 1.005 9.77893 0.917236 9.9999 0.917236C10.2209 0.917236 10.4328 1.005 10.5891 1.16123L12.7616 3.33373H15.8332C16.0542 3.33373 16.2662 3.42152 16.4225 3.5778C16.5788 3.73408 16.6666 3.94604 16.6666 4.16706V7.23873L18.8391 9.41123C18.9953 9.5675 19.0831 9.77942 19.0831 10.0004C19.0831 10.2214 18.9953 10.4333 18.8391 10.5896L16.6666 12.7621V15.8337C16.6666 16.0547 16.5788 16.2667 16.4225 16.423C16.2662 16.5793 16.0542 16.6671 15.8332 16.6671H12.7616L10.5891 18.8396C10.4328 18.9958 10.2209 19.0835 9.9999 19.0835C9.77893 19.0835 9.56701 18.9958 9.41074 18.8396L7.23824 16.6671H4.16657C3.94556 16.6671 3.73359 16.5793 3.57731 16.423C3.42103 16.2667 3.33324 16.0547 3.33324 15.8337V12.7621L1.16074 10.5896C1.00451 10.4333 0.916748 10.2214 0.916748 10.0004C0.916748 9.77942 1.00451 9.5675 1.16074 9.41123L3.33324 7.23873V4.16706C3.33324 3.94604 3.42103 3.73408 3.57731 3.5778C3.73359 3.42152 3.94556 3.33373 4.16657 3.33373H7.23824ZM9.9999 12.5004C10.6629 12.5004 11.2988 12.237 11.7677 11.7682C12.2365 11.2993 12.4999 10.6634 12.4999 10.0004C12.4999 9.33735 12.2365 8.70147 11.7677 8.23262C11.2988 7.76378 10.6629 7.50039 9.9999 7.50039C9.33686 7.50039 8.70098 7.76378 8.23214 8.23262C7.76329 8.70147 7.4999 9.33735 7.4999 10.0004C7.4999 10.6634 7.76329 11.2993 8.23214 11.7682C8.70098 12.237 9.33686 12.5004 9.9999 12.5004V12.5004Z" fill="currentColor" />
</g>
<defs>
<clipPath id="clip0_19_10826">
<rect width="20" height="20" fill="currentColor"/>
</clipPath>
</defs>
</svg>
